<?xml version="1.0" encoding="UTF-8"?>
<svg preserveAspectRatio="none" version="1.1" viewBox="0 0 1440 720" xmlns="http://www.w3.org/2000/svg">
  <g mask="url(#a)">
    <rect width="1440" height="720" fill="rgba(23, 23, 23, 1)" />
    <path class="triangle-float1" d="m666.67-33.608-161.8 22.739 22.739 161.8 161.8-22.739z"
      fill="rgba(0, 80, 97, 0.7)" />
    <path class="triangle-float3" d="m697.66 268.78 101.7-14.293-72.288-145.4z" fill="rgba(0, 80, 97, 0.7)" />
    <path class="triangle-float2" d="m1236.3 476.31 131.19 9.1734-51.833-201.36z" fill="rgba(0, 80, 97, 0.7)" />
    <path class="triangle-float3" d="m1553.8 108.95-47.408-205.35-157.94 252.75z" fill="rgba(0, 80, 97, 0.7)" />
    <path class="triangle-float2" d="m200.4 607.19 168.03-113.34-113.34-168.03-168.03 113.34z"
      fill="rgba(0, 80, 97, 0.7)" />
    <path class="triangle-float1"
      d="m911.89 411.07c56.01 3.317 109.15-30.134 135.27-79.794 24.578-46.738 9.871-100.92-16.039-146.93-26.538-47.127-65.147-92.76-119.23-93.283-54.731-0.53-99.296 41.744-123.29 90.936-21.209 43.474-9.733 92.157 13.192 134.75 24.549 45.61 58.396 91.262 110.1 94.324"
      fill="rgba(0, 80, 97, 0.7)" />
    <path class="triangle-float1"
      d="m903.47 569.32c21.181-1.215 39.203-12.841 50.95-30.508 13.481-20.275 24.68-45.012 13.722-66.755-11.774-23.361-38.567-36.027-64.672-34.338-23.7 1.533-39.755 21.3-51.641 41.862-11.901 20.588-22.411 45.11-10.55 65.721 11.88 20.644 38.412 25.382 62.191 24.018"
      fill="rgba(0, 80, 97, 0.7)" />
    <path class="triangle-float3" d="m759.22 490.97-191.63 10.043 10.043 191.63 191.63-10.043z"
      fill="rgba(0, 80, 97, 0.7)" />
    <path class="triangle-float3" d="m1533.2 496.16-18.96-154.42-154.42 18.96 18.96 154.42z"
      fill="rgba(0, 80, 97, 0.7)" />
    <path class="triangle-float3" d="m349.57 173.09-122.31-102.63-102.63 122.31 122.31 102.63z"
      fill="rgba(0, 80, 97, 0.7)" />
    <path class="triangle-float2" d="m772.38 517.29 148.42-133.64-133.64-148.42-148.42 133.64z"
      fill="rgba(0, 80, 97, 0.7)" />
    <path class="triangle-float1" d="m366.14 319.19 91.631 165.31 165.31-91.631-91.631-165.31z"
      fill="rgba(0, 80, 97, 0.7)" />
    <path class="triangle-float2" d="m653.99 707.09-189.44-109.61-3.3391 191.3z" fill="rgba(0, 80, 97, 0.7)" />
    <path class="triangle-float3" d="m97.879 167.39 222.79-89.766-163.18-132.14z" fill="rgba(0, 80, 97, 0.7)" />
    <path class="triangle-float3" d="m1017.4 132.63-110.11-86.031-86.031 110.11 110.11 86.031z"
      fill="rgba(0, 80, 97, 0.7)" />
    <path class="triangle-float1"
      d="m1254.3 311.72c39.214 2.059 78.686-18.464 95.856-53.779 15.683-32.255-4.044-66.937-22.095-97.929-17.875-30.691-38.256-65.736-73.761-66.65-36.478-0.939-63.958 30.225-80.644 62.677-15.14 29.447-14.463 63.276 0.767 92.677 16.718 32.273 43.581 61.099 79.877 63.004"
      fill="rgba(0, 80, 97, 0.7)" />
  </g>
  <defs>
    <mask id="a">
      <rect width="1440" height="720" fill="#fff" />
    </mask>
    <style>
      @keyframes float1 {
        0% {
          transform: translate(0, 0)
        }

        50% {
          transform: translate(-40px, 0)
        }

        100% {
          transform: translate(0, 0)
        }
      }

      .triangle-float1 {
        animation: float1 8s infinite;
      }

      @keyframes float2 {
        0% {
          transform: translate(0, 0)
        }

        50% {
          transform: translate(-10px, -5px)
        }

        100% {
          transform: translate(0, 0)
        }
      }

      .triangle-float2 {
        animation: float2 4s infinite;
      }

      @keyframes float3 {
        0% {
          transform: translate(0, 0)
        }

        50% {
          transform: translate(5px, -10px)
        }

        100% {
          transform: translate(0, 0)
        }
      }

      .triangle-float3 {
        animation: float3 6s infinite;
      }
    </style>
  </defs>
</svg>