<?xml version="1.0" encoding="UTF-8"?>
<svg width="23.008mm" height="8.5037mm" version="1.1" viewBox="0 0 23.008 8.5037" xmlns="http://www.w3.org/2000/svg"
  xmlnsCc="http://creativecommons.org/ns#" xmlnsDc="http://purl.org/dc/elements/1.1/"
  xmlnsRdf="http://www.w3.org/1999/02/22-rdf-syntax-ns#">
  <metadata>
    <rdfRDF>
      <ccWork rdfAbout="">
        <dcFormat>image/svg+xml</dcFormat>
        <dcType rdfResource="http://purl.org/dc/dcmitype/StillImage" />
        <dcTitle />
      </ccWork>
    </rdfRDF>
  </metadata>
  <g transform="translate(-43.629 -115.58)">
    <g>
      <path
        d="m44.746 117.35q-1.1165 0-1.1165-0.8837 0-0.43392 0.27517-0.66146 0.28046-0.22754 0.84137-0.22754t0.83608 0.22754q0.28046 0.22754 0.28046 0.66146 0 0.8837-1.1165 0.8837z"
        fill="#00b5e1"
        style="font-variant-caps:normal;font-variant-east-asian:normal;font-variant-ligatures:normal;font-variant-numeric:normal" />
      <path d="m43.83 123.98v-5.7891h1.8309v5.7891z" fill="#fff"
        style="font-variant-caps:normal;font-variant-east-asian:normal;font-variant-ligatures:normal;font-variant-numeric:normal" />
      <path d="m51.678 118.19h1.7886l-2.4236 5.7891h-2.2172l-2.4183-5.7891h1.9367l1.6669 4.2122z" fill="#fff"
        style="font-variant-caps:normal;font-variant-east-asian:normal;font-variant-ligatures:normal;font-variant-numeric:normal" />
      <path
        d="m56.234 118.1q1.0742 0 1.7251 0.24341 0.65616 0.24342 0.96837 0.80433 0.3175 0.56092 0.3175 1.5346v3.2967h-1.5187l-0.12171-0.54504h-0.08996q-0.30692 0.3175-0.76729 0.48683-0.45508 0.16404-0.98954 0.16404-0.68792 0-1.1695-0.21166-0.48154-0.21696-0.72496-0.59796t-0.24342-0.87841q0-0.82021 0.64558-1.27 0.64558-0.44979 2.0267-0.53975l1.1589-0.09q-0.01058-0.41275-0.16404-0.64558-0.15346-0.23283-0.48154-0.33337-0.32279-0.10054-0.8837-0.10054-0.39687 0-0.87841 0.0688-0.48154 0.0635-0.90487 0.1905v-1.3018q0.47096-0.13758 1.0266-0.20637 0.56092-0.0688 1.0689-0.0688zm0.08996 4.7889q0.30162 0 0.59266-0.09 0.29633-0.0952 0.53446-0.28046v-1.0424l-0.99483 0.0794q-0.55033 0.0476-0.78846 0.21696-0.23283 0.16933-0.23283 0.47625 0 0.30162 0.22225 0.47096 0.22225 0.16933 0.66675 0.16933z"
        fill="#fff"
        style="font-variant-caps:normal;font-variant-east-asian:normal;font-variant-ligatures:normal;font-variant-numeric:normal" />
      <path
        d="m60.668 118.19h1.4975l0.11642 0.56621h0.08467q0.37571-0.31221 0.87841-0.48154 0.508-0.17462 1.0742-0.17462 1.0795 0 1.6986 0.61912 0.61912 0.61383 0.61912 1.8997v3.3602h-1.8309v-3.2702q0-0.58737-0.24871-0.83079-0.24871-0.24871-0.75141-0.24871-0.36512 0-0.71437 0.13229-0.34925 0.13229-0.59266 0.381v3.8364h-1.8309z"
        fill="#fff"
        style="font-variant-caps:normal;font-variant-east-asian:normal;font-variant-ligatures:normal;font-variant-numeric:normal" />
    </g>
  </g>
</svg>