<svg xmlns="http://www.w3.org/2000/svg" version="1.1" xmlns:xlink="http://www.w3.org/1999/xlink" xmlns:svgjs="http://svgjs.com/svgjs" width="1440" height="720" preserveAspectRatio="none" viewBox="0 0 1440 720">
    <g mask="url(&quot;#SvgjsMask1062&quot;)" fill="none">
        <rect width="1440" height="720" x="0" y="0" fill="rgba(23, 23, 23, 1)"></rect>
        <path d="M666.6712664589713-33.60783908518403L504.8755493640976-10.868933953398454 527.6144544958831 150.92678314147528 689.4101715907569 128.1878780096897z" fill="rgba(0, 80, 97, 0.7)" class="triangle-float1"></path>
        <path d="M697.6570323741712 268.77984661708155L799.3547330408628 254.48716687807078 727.0668630990009 109.08695574753855z" fill="rgba(0, 80, 97, 0.7)" class="triangle-float3"></path>
        <path d="M1236.3017811625848 476.3059105793458L1367.4872150833137 485.4792897468484 1315.654566874203 284.11444928200376z" fill="rgba(0, 80, 97, 0.7)" class="triangle-float2"></path>
        <path d="M1553.7757901498321 108.94523918968082L1506.368109651663-96.39998514391092 1348.4305658162405 156.35291968785006z" fill="rgba(0, 80, 97, 0.7)" class="triangle-float3"></path>
        <path d="M200.40070742792298 607.1881901637767L368.43501430151014 493.8476190558281 255.09444319356157 325.8133121822409 87.06013631997439 439.15388329018947z" fill="rgba(0, 80, 97, 0.7)" class="triangle-float2"></path>
        <path d="M911.89,411.068C967.9,414.385,1021.043,380.934,1047.158,331.274C1071.736,284.536,1057.029,230.352,1031.119,184.34C1004.581,137.213,965.972,91.58,911.89,91.057C857.159,90.527,812.594,132.801,788.596,181.993C767.387,225.467,778.863,274.15,801.788,316.744C826.337,362.354,860.184,408.006,911.89,411.068" fill="rgba(0, 80, 97, 0.7)" class="triangle-float1"></path>
        <path d="M903.466,569.317C924.647,568.102,942.669,556.476,954.416,538.809C967.897,518.534,979.096,493.797,968.138,472.054C956.364,448.693,929.571,436.027,903.466,437.716C879.766,439.249,863.711,459.016,851.825,479.578C839.924,500.166,829.414,524.688,841.275,545.299C853.155,565.943,879.687,570.681,903.466,569.317" fill="rgba(0, 80, 97, 0.7)" class="triangle-float1"></path>
        <path d="M759.2233926202646 490.97334755993944L567.5891583170933 501.0164722143747 577.6322829715285 692.6507065175459 769.2665172746998 682.6075818631107z" fill="rgba(0, 80, 97, 0.7)" class="triangle-float3"></path>
        <path d="M1533.2459989183128 496.1557450231188L1514.2855190379291 341.73502843663266 1359.864802451443 360.6955083170162 1378.8252823318267 515.1162249035024z" fill="rgba(0, 80, 97, 0.7)" class="triangle-float3"></path>
        <path d="M349.56622089203256 173.08614519993966L227.2556642132698 70.45540220170203 124.62492121503215 192.76595888046478 246.93547789379494 295.3967018787024z" fill="rgba(0, 80, 97, 0.7)" class="triangle-float3"></path>
        <path d="M772.3779209915609 517.285058307927L920.8002580577129 383.6449857494265 787.1601854992124 235.22264868327466 638.7378484330604 368.8627212417751z" fill="rgba(0, 80, 97, 0.7)" class="triangle-float2"></path>
        <path d="M366.14400535317725 319.19173410628184L457.7751582006414 484.4987097136823 623.0821338080418 392.8675568662182 531.4509809605777 227.5605812588177z" fill="rgba(0, 80, 97, 0.7)" class="triangle-float1"></path>
        <path d="M653.9900527106296 707.0867856345849L464.54981246155455 597.4725585522123 461.21074092887716 788.7678385416637z" fill="rgba(0, 80, 97, 0.7)" class="triangle-float2"></path>
        <path d="M97.87855940825496 167.3891667818786L320.66864337009076 77.62301783967962 157.49305994932917-54.51396422173306z" fill="rgba(0, 80, 97, 0.7)" class="triangle-float3"></path>
        <path d="M1017.432456902473 132.62770940098017L907.3178343435574 46.59673752748708 821.2868624700643 156.7113600864027 931.4014850289799 242.74233195989575z" fill="rgba(0, 80, 97, 0.7)" class="triangle-float3"></path>
        <path d="M1254.337,311.723C1293.551,313.782,1333.023,293.259,1350.193,257.944C1365.876,225.689,1346.149,191.007,1328.098,160.015C1310.223,129.324,1289.842,94.279,1254.337,93.365C1217.859,92.426,1190.379,123.59,1173.693,156.042C1158.553,185.489,1159.23,219.318,1174.46,248.719C1191.178,280.992,1218.041,309.818,1254.337,311.723" fill="rgba(0, 80, 97, 0.7)" class="triangle-float1"></path>
    </g>
    <defs>
        <mask id="SvgjsMask1062">
            <rect width="1440" height="720" fill="#ffffff"></rect>
        </mask>
        <style>
            @keyframes float1 {
                0%{transform: translate(0, 0)}
                50%{transform: translate(-40px, 0)}
                100%{transform: translate(0, 0)}
            }

            .triangle-float1 {
                animation: float1 8s infinite;
            }

            @keyframes float2 {
                0%{transform: translate(0, 0)}
                50%{transform: translate(-10px, -5px)}
                100%{transform: translate(0, 0)}
            }

            .triangle-float2 {
                animation: float2 4s infinite;
            }

            @keyframes float3 {
                0%{transform: translate(0, 0)}
                50%{transform: translate(5px, -10px)}
                100%{transform: translate(0, 0)}
            }

            .triangle-float3 {
                animation: float3 6s infinite;
            }
        </style>
    </defs>
</svg>